# xmcd
#
# Track frame offsets:
#  150
#  13378
#  25150
#  36456
#  46598
#  58022
#  65705
#  76161
#  85322
#  93472
#
# Disc length: 1403 seconds
#
# Revision: 0
# Processed by: cddbd v1.5.1PL0 Copyright (c) Steve Scherf et al.
# Submitted via: Collectorz.com_Music_Collector 6.9
#
DISCID=7e05790a
DTITLE=Elton Britt - Renfro Valley Pioneers - Elton Britt
DYEAR=1900
DGENRE=Country
TTITLE0=Elton Britt - Rovin' Gambler
TTITLE1=Elton Brit - CowPoke
TTITLE2=Elton Brit - A Mighty Pretty Waltz
TTITLE3=Elton Brit - Chime Bells
TTITLE4=Elton Brit - They're Burning Down The House I Was Brung Up In
TTITLE5=The Renfro Balley Pioneers - Sweet Dixie
TTITLE6=The Renfro Valley Pioneers - The Chicken Reel
TTITLE7=The Renfro Valley Pioneers - Big Maggie
TTITLE8=The Renfro Valley Pioneers - Lonesome Road
TTITLE9=The Renfro Valley Pioneers - Baby Sue
EXTD=
EXTT0=
EXTT1=
EXTT2=
EXTT3=
EXTT4=
EXTT5=
EXTT6=
EXTT7=
EXTT8=
EXTT9=
PLAYORDER=
